<svg width="720" height="256" viewBox="0 0 720 256" fill="none" xmlns="http://www.w3.org/2000/svg">
<rect width="720" height="256" fill="white"/>
<path d="M262.528 128V59.264H276.208V128H262.528ZM287.893 128V77.936H300.181V87.104L298.693 85.28H300.229C301.797 82.72 304.037 80.656 306.949 79.088C309.861 77.52 313.029 76.736 316.453 76.736C321.989 76.736 326.325 78.416 329.461 81.776C332.629 85.104 334.213 89.696 334.213 95.552V128H321.541V98.432C321.541 95.104 320.741 92.496 319.141 90.608C317.541 88.688 315.061 87.728 311.701 87.728C308.597 87.728 305.957 88.864 303.781 91.136C301.637 93.408 300.565 96.304 300.565 99.824V128H287.893ZM344.08 128V77.936H356.368V87.104L354.88 85.28H356.416C357.984 82.72 360.224 80.656 363.136 79.088C366.048 77.52 369.216 76.736 372.64 76.736C378.176 76.736 382.512 78.416 385.648 81.776C388.816 85.104 390.4 89.696 390.4 95.552V128H377.728V98.432C377.728 95.104 376.928 92.496 375.328 90.608C373.728 88.688 371.248 87.728 367.888 87.728C364.784 87.728 362.144 88.864 359.968 91.136C357.824 93.408 356.752 96.304 356.752 99.824V128H344.08ZM423.5 129.2C415.916 129.2 409.628 126.736 404.636 121.808C399.644 116.848 397.148 110.576 397.148 102.992C397.148 95.408 399.628 89.136 404.588 84.176C409.548 79.216 415.724 76.736 423.116 76.736C430.54 76.736 436.54 79.024 441.116 83.6C445.724 88.176 448.028 93.984 448.028 101.024V105.872H403.532V98.432H436.316C436.092 95.168 434.796 92.464 432.428 90.32C430.092 88.144 427.02 87.056 423.212 87.056C419.18 87.056 415.788 88.528 413.036 91.472C410.284 94.384 408.908 98.224 408.908 102.992C408.908 107.888 410.396 111.824 413.372 114.8C416.348 117.744 419.932 119.216 424.124 119.216C426.204 119.216 428.028 118.928 429.596 118.352C431.196 117.776 432.636 116.944 433.916 115.856C435.228 114.768 436.604 113.12 438.044 110.912L446.876 115.808C444.86 119.232 442.764 121.856 440.588 123.68C438.444 125.504 436.012 126.88 433.292 127.808C430.572 128.736 427.308 129.2 423.5 129.2ZM455.143 128V77.936H467.047V86.96L465.991 85.76H467.143C468.551 82.816 470.471 80.576 472.903 79.04C475.335 77.504 477.863 76.736 480.487 76.736C481.191 76.736 481.927 76.8 482.695 76.928C483.495 77.024 484.199 77.168 484.807 77.36C485.447 77.52 485.767 77.6 485.767 77.6V89.36C485.767 89.36 485.415 89.264 484.711 89.072C484.007 88.848 483.159 88.656 482.167 88.496C481.207 88.336 480.359 88.256 479.623 88.256C476.359 88.256 473.575 89.456 471.271 91.856C468.967 94.256 467.815 97.488 467.815 101.552V128H455.143ZM513.933 129.2C506.349 129.2 500.093 126.736 495.165 121.808C490.237 116.88 487.773 110.592 487.773 102.944C487.773 95.296 490.253 89.024 495.213 84.128C500.173 79.2 506.445 76.736 514.029 76.736C517.645 76.736 520.845 77.248 523.629 78.272C526.445 79.296 528.941 80.8 531.117 82.784C533.325 84.768 535.389 87.792 537.309 91.856L526.605 96.128C525.421 93.952 524.269 92.32 523.149 91.232C522.061 90.144 520.781 89.312 519.309 88.736C517.837 88.128 516.157 87.824 514.269 87.824C510.333 87.824 506.973 89.248 504.189 92.096C501.437 94.912 500.061 98.512 500.061 102.896C500.061 107.344 501.437 110.992 504.189 113.84C506.973 116.688 510.317 118.112 514.221 118.112C516.077 118.112 517.725 117.824 519.165 117.248C520.605 116.64 521.917 115.76 523.101 114.608C524.285 113.456 525.469 111.76 526.653 109.52L537.405 113.648C535.677 117.456 533.725 120.416 531.549 122.528C529.373 124.64 526.861 126.288 524.013 127.472C521.165 128.624 517.805 129.2 513.933 129.2ZM548.211 147.248C548.211 147.248 548.163 147.248 548.067 147.248C548.003 147.248 548.051 147.248 548.211 147.248L559.107 123.584L558.963 128.864L537.986 77.936H551.139C551.171 77.936 551.171 77.936 551.139 77.936L563.427 109.76L564.435 112.688H564.579L565.587 109.76L577.635 77.936C577.603 77.936 577.587 77.936 577.587 77.936C577.619 77.936 577.635 77.936 577.635 77.936H590.691L561.555 147.248C561.619 147.248 561.635 147.248 561.603 147.248C561.571 147.248 561.555 147.248 561.555 147.248H548.211ZM612.835 129.2C609.219 129.2 606.131 128.8 603.571 128C601.043 127.232 598.803 126.096 596.851 124.592C594.931 123.056 593.379 121.376 592.195 119.552C591.043 117.728 590.467 116.816 590.467 116.816L599.107 111.632C599.107 111.632 599.555 112.288 600.451 113.6C601.347 114.88 602.371 115.984 603.523 116.912C604.675 117.84 605.987 118.576 607.459 119.12C608.963 119.632 610.771 119.888 612.883 119.888C615.411 119.888 617.443 119.392 618.979 118.4C620.547 117.408 621.331 116.032 621.331 114.272C621.331 112.48 620.627 111.136 619.219 110.24C617.843 109.344 614.963 108.368 610.579 107.312C604.051 105.776 599.427 103.76 596.707 101.264C594.019 98.736 592.675 95.52 592.675 91.616C592.675 87.04 594.547 83.424 598.291 80.768C602.067 78.08 606.835 76.736 612.595 76.736C615.507 76.736 618.051 77.04 620.227 77.648C622.403 78.256 624.339 79.168 626.035 80.384C627.763 81.6 629.219 82.976 630.403 84.512C631.587 86.016 632.179 86.768 632.179 86.768L624.019 92.432C624.019 92.432 623.635 91.952 622.867 90.992C622.099 90 621.171 89.12 620.083 88.352C619.027 87.584 617.859 87.024 616.579 86.672C615.331 86.288 613.955 86.096 612.451 86.096C610.019 86.096 608.099 86.576 606.691 87.536C605.283 88.496 604.579 89.68 604.579 91.088C604.579 92.72 605.315 93.984 606.787 94.88C608.259 95.776 611.251 96.752 615.763 97.808C622.131 99.28 626.659 101.232 629.347 103.664C632.035 106.064 633.379 109.376 633.379 113.6C633.379 118.464 631.475 122.288 627.667 125.072C623.859 127.824 618.915 129.2 612.835 129.2Z" fill="#000DBD"/>
<path d="M260.864 182V136.176H275.072C282.069 136.176 287.669 138.267 291.872 142.448C296.096 146.608 298.208 152.133 298.208 159.024C298.208 165.936 296.096 171.493 291.872 175.696C287.648 179.899 282.048 182 275.072 182H260.864ZM266.016 177.104H275.072C280.597 177.104 284.949 175.504 288.128 172.304C291.328 169.083 292.928 164.677 292.928 159.088V159.056C292.928 153.467 291.339 149.072 288.16 145.872C284.981 142.672 280.619 141.072 275.072 141.072H266.016V177.104ZM304.561 182V149.008H309.489V154.768L308.881 154.288H309.617C310.47 152.432 311.793 150.949 313.585 149.84C315.377 148.709 317.212 148.144 319.089 148.144C319.537 148.144 320.038 148.176 320.593 148.24C321.148 148.304 321.649 148.4 322.097 148.528C322.545 148.635 322.769 148.688 322.769 148.688V153.968C322.769 153.968 322.492 153.893 321.937 153.744C321.382 153.595 320.796 153.488 320.177 153.424C319.558 153.339 319.068 153.296 318.705 153.296C316.273 153.296 314.161 154.256 312.369 156.176C310.577 158.075 309.681 160.507 309.681 163.472V182H304.561ZM327.954 182V149.008H333.074V182H327.954ZM330.482 143.28C329.522 143.28 328.69 142.939 327.986 142.256C327.303 141.552 326.962 140.709 326.962 139.728C326.962 138.725 327.303 137.893 327.986 137.232C328.69 136.571 329.522 136.24 330.482 136.24C331.485 136.24 332.317 136.571 332.978 137.232C333.661 137.893 334.002 138.725 334.002 139.728C334.002 140.709 333.661 141.552 332.978 142.256C332.317 142.939 331.485 143.28 330.482 143.28ZM351.036 182L337.692 149.008H343.196L353.052 174.256L353.5 175.504H353.628L354.14 174.224L364.028 149.008H369.308L355.932 182H351.036ZM386.502 182.864C381.745 182.864 377.777 181.232 374.598 177.968C371.441 174.704 369.862 170.533 369.862 165.456C369.862 160.464 371.43 156.336 374.566 153.072C377.702 149.787 381.574 148.144 386.182 148.144C390.918 148.144 394.737 149.595 397.638 152.496C400.539 155.376 401.99 158.992 401.99 163.344V166.576H372.774V162.224H396.582C396.475 159.536 395.473 157.307 393.574 155.536C391.697 153.765 389.233 152.88 386.182 152.88C382.982 152.88 380.315 154.043 378.182 156.368C376.07 158.693 375.014 161.723 375.014 165.456C375.014 169.253 376.155 172.315 378.438 174.64C380.742 176.965 383.494 178.128 386.694 178.128C388.273 178.128 389.638 177.904 390.79 177.456C391.942 177.008 392.977 176.379 393.894 175.568C394.833 174.757 395.835 173.499 396.902 171.792L401.286 173.872C400.134 176.197 398.854 177.968 397.446 179.184C396.038 180.4 394.459 181.317 392.71 181.936C390.982 182.555 388.913 182.864 386.502 182.864Z" fill="#000DBD"/>
<path d="M118.944 211C94.3174 211 74.3369 203.285 59.0021 187.856C43.6674 172.427 36 152.421 36 127.84C36 102.881 43.9318 82.6868 59.7953 67.2575C75.6588 51.7525 95.6393 44 119.737 44C128.953 44 137.036 44.9832 143.985 46.9497C151.011 48.8406 157.356 51.45 163.022 54.7778C168.687 58.0301 173.522 61.5471 177.525 65.3288C181.605 69.1105 183.644 71.0013 183.644 71.0013L162.115 94.7126C162.115 94.7126 160.831 93.3512 158.262 90.6284C155.694 87.8299 152.597 85.334 148.971 83.1406C145.421 80.8716 141.341 79.0186 136.733 77.5815C132.201 76.0688 126.762 75.3125 120.417 75.3125C106.291 75.3125 94.4307 80.1909 84.837 89.9477C75.2434 99.6288 70.4465 112.26 70.4465 127.84C70.4465 143.043 75.0545 155.485 84.2705 165.166C93.4864 174.847 105.384 179.688 119.963 179.688C126.611 179.688 132.465 178.931 137.527 177.418C142.588 175.906 146.969 173.902 150.671 171.406C154.372 168.834 157.432 166.073 159.849 163.124C162.266 160.174 163.475 158.699 163.475 158.699L186.25 179.688C186.25 179.688 184.248 181.994 180.245 186.608C176.317 191.222 171.444 195.382 165.628 199.088C159.811 202.718 153.05 205.63 145.345 207.823C137.715 209.941 128.915 211 118.944 211Z" fill="#000DBD"/>
<path d="M156.293 174.845L168.587 147.957V152.892L142.696 93.5569H151.477L171.93 140.979H171.986L173.12 138.03L192.099 93.5569H200.767L165.358 174.845H156.293Z" fill="#000DBD"/>
<path d="M213.961 175.298C209.92 175.298 206.464 174.788 203.593 173.767C200.76 172.708 198.324 171.214 196.285 169.285C194.245 167.357 192.696 165.352 191.639 163.273C190.619 161.193 190.109 160.153 190.109 160.153L197.588 156.636C197.588 156.636 198.06 157.468 199.004 159.132C199.986 160.796 201.119 162.27 202.403 163.556C203.725 164.842 205.349 165.863 207.276 166.619C209.24 167.338 211.676 167.697 214.584 167.697C218.248 167.697 221.307 166.884 223.762 165.258C226.255 163.632 227.502 161.42 227.502 158.621C227.502 155.634 226.482 153.421 224.442 151.984C222.44 150.509 218.682 149.11 213.168 147.786C205.085 145.782 199.608 143.419 196.738 140.696C193.867 137.935 192.432 134.418 192.432 130.145C192.432 125.304 194.415 121.352 198.381 118.289C202.384 115.226 207.54 113.694 213.848 113.694C216.869 113.694 219.513 114.073 221.779 114.829C224.083 115.585 226.123 116.739 227.898 118.289C229.711 119.802 231.203 121.504 232.374 123.394C233.583 125.248 234.187 126.174 234.187 126.174L227.162 129.975C227.162 129.975 226.727 129.313 225.859 127.989C224.99 126.666 223.951 125.493 222.743 124.472C221.572 123.451 220.193 122.676 218.607 122.147C217.058 121.617 215.245 121.352 213.168 121.352C209.315 121.352 206.275 122.165 204.046 123.792C201.856 125.38 200.76 127.327 200.76 129.634C200.76 132.433 201.95 134.532 204.33 135.931C206.709 137.33 210.637 138.673 216.114 139.958C223.215 141.698 228.295 143.854 231.354 146.425C234.451 148.959 236 152.816 236 157.997C236 163.367 233.96 167.603 229.881 170.704C225.802 173.767 220.495 175.298 213.961 175.298Z" fill="#000DBD"/>
</svg>
